# xmcd
#
# Track frame offsets: 
#        150
#        28560
#        45167
#        76653
#        101174
#        117742
#        142626
#        158569
#        175574
#        191393
#        216905
#
# Disc length: 3084 seconds
#
# Revision: 0
# Processed by: cddbd v1.5.2PL0 Copyright (c) Steve Scherf et al.
# Submitted via: ExactAudioCopy v0.99pb4
#
DISCID=7d0c0a0b
DTITLE=Let Me In - Alex Rossi
DYEAR=2008
DGENRE=Blues
TTITLE0=Tell me how you like it
TTITLE1=The sun is shining
TTITLE2=Rock me
TTITLE3=That' s alright
TTITLE4=Cross - eyed cat 
TTITLE5=Good lover 
TTITLE6=Hawaiian eye
TTITLE7=Hate to see you go
TTITLE8=I just want to make love you
TTITLE9=Show me your bombacha
TTITLE10=Caravan
EXTD=
EXTT0=
EXTT1=
EXTT2=
EXTT3=
EXTT4=
EXTT5=
EXTT6=
EXTT7=
EXTT8=
EXTT9=
EXTT10=
PLAYORDER=
